<?xml version="1.0" encoding="UTF-8"?>
<svg id="Layer_1" data-name="Layer 1" xmlns="http://www.w3.org/2000/svg" viewBox="0 0 898.43 697.2">
  <defs>
    <style>
      .cls-1 {
        fill: #f3f3f3;
      }

      .cls-1, .cls-2 {
        stroke-width: 0px;
      }

      .cls-2 {
        fill: #fff;
      }
    </style>
  </defs>
  <path class="cls-2" d="M350.9,511.9c-51.87,6.55-103.97,2.21-155.95,2.98-51.98.77-103.99.21-155.98.15-15.47-.02-32.7-13.4-36.11-30.54-3.69-18.53-4-37.67.31-56.23,4.35-18.72,21.44-30.09,40.14-30.14,79.33-.21,158.65-.06,237.98-.1,22.38-.01,40.58-19.11,40.96-40.65.36-20.11-13.98-38.06-31.81-41.93-5.8-1.26-11.72-2.04-17.73-2.03-42.16.06-84.33.23-126.49-.03-30.75-.19-59-9.09-84.11-26.88-31.91-22.6-50.41-53.84-58.21-91.93C.17,176.3.14,157.87,1.2,139.57c1.71-29.58,10.94-57.01,28.83-80.96C52.27,28.86,81.97,10.73,118.27,3.06,130.5.47,142.81-.01,155.25,0c89.33.08,178.65.04,267.98.04,20.29,0,38.18,16.58,40,36.76,1.34,14.8.62,29.6.4,44.4-.01.96-.45,1.91-.69,2.86-6.7,23.23-25.14,33.82-48.56,33.21-29.13-.75-58.29-.16-87.44-.15-47.8,0-95.6-.05-143.4.04-16.19.03-28.13,7.78-35.85,21.66-7.77,13.98-7.39,28.3,1.01,41.88,8.33,13.47,21.14,19.89,36.75,19.97,47.13.25,94.26.17,141.39.22,1.62.33,3.22.81,4.86.97,20.87,1.99,40.5,7.76,58.75,18.3,31.16,17.99,52.62,43.9,64.67,77.77,3.83,10.77,5.5,21.98,7.76,33.08.61,2.8.52,5.62.14,8.44.13,1.6-.62,3.37.96,4.67l.19.23s-.17.25-.17.25c-.41,10.12-.04,20.23-.74,30.38-1.58,22.76-6.74,44.26-17.73,64.43-13.99,25.69-33.61,45.4-59.63,58.81-11.21,5.77-22.95,10.07-34.99,13.66Z"/>
  <path class="cls-1" d="M350.9,511.9c12.04-3.59,23.78-7.89,34.99-13.66,26.02-13.41,45.64-33.12,59.63-58.81,10.99-20.17,16.15-41.67,17.73-64.43.7-10.15.33-20.26.74-30.38,4.02,10.61,9.82,19.83,20.15,25.43,23.84,12.91,52.79-1.23,58.14-27.31.91-4.45.95-8.86.96-13.32.12-89.66.16-179.32.39-268.98.06-22.74,17.79-41.82,41.43-41.45,18.66.3,37.33.13,55.99.04,19.94-.09,38.7,19.09,38.71,38.36.07,90.65.07,181.31.16,271.96.01,10.56,1.68,20.54,8.21,29.58,12.69,17.56,39.98,21.25,56.46,7.27,10.38-8.8,15.36-19.63,15.34-33.39-.14-89.66-.1-179.32.07-268.98.04-21.81,10.44-38.78,33.35-44.27,1.84-.44,3.6-.48,5.39-.49,19.33-.04,38.66-.05,58-.02,20.81.03,37.74,16.5,39.41,37.38,1.47,18.3.72,36.59.74,54.87.1,119.16.03,238.31-.09,357.47-.01,11.57-2.25,22.65-9.97,31.95-7.25,8.73-16.67,14.1-27.81,14.17-56.66.34-113.32.17-169.98.15-15.81,0-32.42-14.49-36.09-31.09-1.64-7.41-.95-14.88-.92-22.31.11-23.43-15.83-41.69-39.5-42.87-17.47-.87-33.99,9.5-39.69,29.93-2,7.18-.67,14.52-1.02,21.77-.51,10.76-2.58,21.01-9.56,29.67-7.46,9.26-17.23,14.73-29.03,14.79-55.16.26-110.32.07-165.49.18-5.9.01-11.46-.9-16.84-3.21Z"/>
  <path class="cls-1" d="M462.87,331.01c-2.26-11.1-3.92-22.31-7.76-33.08-12.06-33.87-33.52-59.78-64.67-77.77-18.24-10.54-37.88-16.31-58.75-18.3-1.63-.16-3.24-.64-4.86-.96.03-27.92.07-55.85.1-83.77,29.15-.01,58.31-.6,87.44.15,23.43.6,41.87-9.99,48.56-33.21.04,31.33.13,62.65.12,93.98-.03,50.99-.12,101.98-.19,152.97Z"/>
  <path class="cls-2" d="M436.83,641.92c0-14.99-.02-29.99,0-44.98.02-7.77,2.39-10.1,10.14-10.12,4.16-.01,8.33,0,12.49,0,8.15.01,10.46,2.27,10.47,10.28.01,18.16,0,36.32,0,54.48,0,1.33-.07,2.67.04,4,.4,4.72,3.36,7.64,7.6,7.59,4.25-.04,7.31-3.02,7.4-7.75.16-8.33.05-16.66.05-24.99,0-11.33-.02-22.66,0-33.98.02-6.97,2.68-9.58,9.68-9.62,4.33-.02,8.66-.01,12.99,0,8.2.01,10.43,2.19,10.44,10.25,0,18.32-.01,36.65.02,54.97,0,1.81.06,3.68.5,5.43.98,3.91,3.64,5.92,7.68,5.65,4.08-.28,6.4-2.72,6.78-6.69.29-3.14.16-6.32.17-9.49.01-16.66-.02-33.32.02-49.98.02-7.68,2.52-10.12,10.22-10.14,4.5-.01,9-.03,13.49,0,6.87.04,9.64,2.71,9.7,9.72.1,11.16.03,22.32.03,33.48,0,18.49.01,36.98,0,55.47,0,9.22-2.31,11.52-11.42,11.52-12.16,0-24.32.02-36.48,0-6.89-.01-9.52-2.65-9.74-9.67-.06-1.83.11-3.68-.08-5.49-.43-4.26-2.88-6.67-7.16-6.82-4.34-.16-6.92,2.3-7.61,6.39-.44,2.6-.05,5.33-.25,7.98-.38,4.93-3.1,7.57-8.08,7.6-13.66.08-27.32.09-40.98,0-5.5-.04-8.07-2.96-8.09-9.09-.06-15.33-.02-30.65-.02-45.98Z"/>
  <path class="cls-2" d="M581.86,641.89c0-15-.02-29.99,0-44.99.02-7.66,2.49-10.07,10.22-10.07,27.33,0,54.65-.01,81.98,0,7.69,0,9.99,2.38,10.03,10.21.09,16.68-.19,16.95-16.99,16.95-14.16,0-28.33-.01-42.49,0-6.18,0-9.73,2.85-9.61,7.62.11,4.59,3.55,7.29,9.46,7.3,14.5.03,28.99-.02,43.49.02,8.23.02,10.73,2.56,10.81,10.75.02,2,.06,4-.02,6-.25,6.23-3.14,9.13-9.37,9.16-15,.06-29.99.05-44.99,0-3.98-.01-7.26.95-8.82,5.06-1.98,5.23,1.77,10.01,8.09,10.03,16.16.07,32.32.02,48.49.02,9.95,0,11.96,2.02,11.96,11.96,0,14.79-.31,15.11-15.12,15.11-25.66,0-51.32,0-76.98,0-7.69,0-10.12-2.41-10.14-10.14-.03-15,0-29.99,0-44.99Z"/>
  <path class="cls-2" d="M699.21,641.51c0-14.66-.03-29.32,0-43.98.02-8.2,2.56-10.7,10.74-10.7,21.49,0,42.98-.02,64.47,0,15.49.02,26.13,9.97,27.1,25.42.24,3.82.25,7.67.04,11.49-.34,6.25-3.73,9.66-9.95,10.4-5.8.69-8.8,3.19-8.72,7.65.1,5.46,3.52,7.16,8.5,7.71,7.48.82,10.16,4.05,10.23,11.55.08,8.83.1,17.66,0,26.49-.08,6.99-2.75,9.46-9.83,9.49-4.5.01-9,.01-13.49,0-7.25-.02-9.92-2.5-10.07-9.84-.16-7.49,0-14.99-.05-22.49-.04-7.25-2.35-9.59-9.5-9.63-5.5-.03-11-.03-16.49,0-7.06.04-9.47,2.48-9.51,9.7-.04,7.33.01,14.66-.01,21.99-.03,7.71-2.53,10.25-10.07,10.27-4.33.01-8.66,0-12.99,0-7.77-.01-10.35-2.56-10.38-10.54-.06-14.99-.02-29.99-.02-44.98ZM750.31,613.89s0-.02,0-.02c-3.49,0-6.99-.14-10.47.04-4.27.22-6.78,2.64-7.06,6.91-.29,4.32,2.03,7.24,6.18,7.68,7.75.81,15.59.98,23.34-.09,4.2-.58,6.23-3.58,5.81-7.91-.39-4.11-2.85-6.31-6.84-6.55-3.64-.22-7.31-.05-10.96-.05Z"/>
  <path class="cls-2" d="M62.08,586.82c10.5,0,20.99-.02,31.49,0,7.11.02,9.43,2.4,9.5,9.65.02,2.17.01,4.33,0,6.5-.03,8.14-2.51,10.75-10.72,10.79-16.33.08-32.65,0-48.98.03-5.82,0-9.27,2.83-9.23,7.44.03,4.3,3.52,7.02,9.04,7.14,10.81.24,21.64-.54,32.45.53,15.51,1.53,27.07,13.75,27.36,29.25.1,5.14.54,10.3-.73,15.41-3.55,14.31-14.96,23.42-29.65,23.45-20.66.04-41.32.02-61.97,0-7.02,0-9.55-2.57-9.65-9.63-.22-16.54.46-17.23,16.88-17.23,14.33,0,28.65.02,42.98,0,5.9-.01,9.1-2.72,9.03-7.52-.06-4.52-3.27-7.34-8.82-7.41-9.83-.13-19.66.08-29.48-.17-16.33-.41-27.87-10.27-30.12-26.39-1.59-11.43-.95-22.75,7.47-31.97,5.92-6.47,13.39-9.76,22.16-9.85,10.33-.1,20.66-.02,30.99-.02Z"/>
  <path class="cls-2" d="M199.82,643.88c-.5,7.88.93,17.58-.73,27.17-2.67,15.43-15.1,25.9-30.79,25.96-7.66.03-15.4.57-22.97-.3-15.43-1.77-25.94-13.05-26.89-30.48-.94-17.42-1.41-34.98.42-52.4,1.65-15.65,14.54-26.76,30.31-26.99,6.16-.09,12.33-.04,18.49-.01,18.33.09,31.83,13.41,32.13,31.81.13,7.83.02,15.66.02,25.24ZM166.71,641.7c0-6.32.07-12.64-.02-18.96-.09-5.66-3.11-9.16-7.7-9.18-4.57-.02-7.68,3.42-7.74,9.16-.13,12.81-.12,25.62,0,38.43.05,5.92,2.89,9.02,7.71,9.02,4.83,0,7.62-3.11,7.73-9,.12-6.49.03-12.98.03-19.46Z"/>
  <path class="cls-2" d="M214.91,641.71c0-14.82-.02-29.64,0-44.46.01-7.98,2.46-10.41,10.4-10.41,27.31,0,54.62-.01,81.93,0,7.38,0,9.82,2.44,9.91,9.86.04,3.16.1,6.33-.02,9.49-.23,5.95-3.08,8.74-9.14,8.76-16.65.06-33.3.01-49.96.03-6.19,0-9.81,2.7-9.96,7.34-.16,4.78,3.61,7.73,10.12,7.75,14.65.04,29.31,0,43.96.02,6.63.01,9.44,2.79,9.56,9.33.05,3,.04,5.99,0,8.99-.08,6.94-2.79,9.72-9.68,9.74-14.65.04-29.31,0-43.96.02-7.35.01-9.98,2.6-10.03,9.86-.05,6.83.06,13.66-.03,20.48-.07,5.75-2.86,8.44-8.67,8.51-4.99.06-9.99.03-14.99,0-6.69-.04-9.4-2.64-9.43-9.35-.06-15.32-.02-30.64-.02-45.96Z"/>
  <path class="cls-2" d="M816.72,642.05c0-14.83-.01-29.66,0-44.49,0-8.57,2.12-10.72,10.49-10.73,4.67,0,9.33-.06,14,.02,5.69.09,8.54,2.9,8.61,8.66.1,7.66-.01,15.33.04,22.99.04,5.82,2.87,9.3,7.46,9.32,4.59.03,7.57-3.51,7.61-9.21.05-7.16,0-14.33.02-21.49.01-7.93,2.4-10.27,10.49-10.28,4.83,0,9.67-.09,14.5.02,5.22.12,7.48,2.92,8.09,8.11,1.66,14.02-1.82,26.75-9.44,38.34-3.99,6.08-4.04,11.63.1,17.46.86,1.21,1.21,2.77,2.05,3.99,7.28,10.45,8.02,22.24,7.23,34.39-.32,4.95-2.87,7.74-7.79,7.85-5.66.13-11.33.11-16.99,0-5.35-.09-8.15-2.98-8.21-8.5-.09-7.66.01-15.33-.04-22.99-.04-5.79-2.83-9.3-7.38-9.44-4.7-.15-7.66,3.49-7.7,9.58-.04,7.5.05,15-.03,22.49-.06,6.07-2.85,8.8-8.89,8.88-4.17.05-8.33.01-12.5.01-10.14,0-11.72-1.62-11.72-11.99,0-14.33,0-28.66,0-42.99Z"/>
  <path class="cls-2" d="M376.66,586.25c11.67,0,23.33-.04,35,.01,7.27.03,9.91,2.68,10.05,9.95.06,3.33.12,6.67-.02,10-.25,6-2.61,8.38-8.64,8.69-2.99.16-6,.04-9,.04-8.49.02-10.45,2.01-10.45,10.7,0,18.83,0,37.66,0,56.49,0,14.65-.24,14.89-14.66,14.89-3.17,0-6.33.01-9.5,0-7-.03-9.27-2.22-9.28-9.23-.04-20.33-.01-40.66-.01-60.99,0-1.33.05-2.67-.02-4-.23-5-2.82-7.67-7.78-7.82-4.16-.13-8.33.03-12.49-.13-5.02-.19-7.6-3.03-7.76-7.96-.13-4.16-.16-8.34,0-12.5.22-5.58,2.87-8.08,8.57-8.12,12-.07,24-.02,36-.02Z"/>
  <path class="cls-2" d="M463.96,344.13c-1.58-1.3-.83-3.08-.96-4.67,1.78,1.26.76,3.09.96,4.67Z"/>
</svg>