<?xml version="1.0" encoding="UTF-8"?>
<svg id="Layer_1" data-name="Layer 1" xmlns="http://www.w3.org/2000/svg" viewBox="0 0 897.06 515.58">
  <defs>
    <style>
      .cls-1 {
        fill: #1a7a95;
      }

      .cls-1, .cls-2, .cls-3 {
        stroke-width: 0px;
      }

      .cls-2 {
        fill: #37a7c4;
      }

      .cls-3 {
        fill: #045872;
      }
    </style>
  </defs>
  <path class="cls-2" d="M350.9,511.9c-51.87,6.55-103.97,2.21-155.95,2.98-51.98.77-103.99.21-155.98.15-15.47-.02-32.7-13.4-36.11-30.54-3.69-18.53-4-37.67.31-56.23,4.35-18.72,21.44-30.09,40.14-30.14,79.33-.21,158.65-.06,237.98-.1,22.38-.01,40.58-19.11,40.96-40.65.36-20.11-13.98-38.06-31.81-41.93-5.8-1.26-11.72-2.04-17.73-2.03-42.16.06-84.33.23-126.49-.03-30.75-.19-59-9.09-84.11-26.88-31.91-22.6-50.41-53.84-58.21-91.93C.17,176.3.14,157.87,1.2,139.57c1.71-29.58,10.94-57.01,28.83-80.96C52.27,28.86,81.97,10.73,118.27,3.06,130.5.47,142.81-.01,155.25,0c89.33.08,178.65.04,267.98.04,20.29,0,38.18,16.58,40,36.76,1.34,14.8.62,29.6.4,44.4-.01.96-.45,1.91-.69,2.86-6.7,23.23-25.14,33.82-48.56,33.21-29.13-.75-58.29-.16-87.44-.15-47.8,0-95.6-.05-143.4.04-16.19.03-28.13,7.78-35.85,21.66-7.77,13.98-7.39,28.3,1.01,41.88,8.33,13.47,21.14,19.89,36.75,19.97,47.13.25,94.26.17,141.39.22,1.62.33,3.22.81,4.86.97,20.87,1.99,40.5,7.76,58.75,18.3,31.16,17.99,52.62,43.9,64.67,77.77,3.83,10.77,5.5,21.98,7.76,33.08.61,2.8.52,5.62.14,8.44.13,1.6-.62,3.37.96,4.67l.19.23s-.17.25-.17.25c-.41,10.12-.04,20.23-.74,30.38-1.58,22.76-6.74,44.26-17.73,64.43-13.99,25.69-33.61,45.4-59.63,58.81-11.21,5.77-22.95,10.07-34.99,13.66Z"/>
  <path class="cls-3" d="M350.9,511.9c12.04-3.59,23.78-7.89,34.99-13.66,26.02-13.41,45.64-33.12,59.63-58.81,10.99-20.17,16.15-41.67,17.73-64.43.7-10.15.33-20.26.74-30.38,4.02,10.61,9.82,19.83,20.15,25.43,23.84,12.91,52.79-1.23,58.14-27.31.91-4.45.95-8.86.96-13.32.12-89.66.16-179.32.39-268.98.06-22.74,17.79-41.82,41.43-41.45,18.66.3,37.33.13,55.99.04,19.94-.09,38.7,19.09,38.71,38.36.07,90.65.07,181.31.16,271.96.01,10.56,1.68,20.54,8.21,29.58,12.69,17.56,39.98,21.25,56.46,7.27,10.38-8.8,15.36-19.63,15.34-33.39-.14-89.66-.1-179.32.07-268.98.04-21.81,10.44-38.78,33.35-44.27,1.84-.44,3.6-.48,5.39-.49,19.33-.04,38.66-.05,58-.02,20.81.03,37.74,16.5,39.41,37.38,1.47,18.3.72,36.59.74,54.87.1,119.16.03,238.31-.09,357.47-.01,11.57-2.25,22.65-9.97,31.95-7.25,8.73-16.67,14.1-27.81,14.17-56.66.34-113.32.17-169.98.15-15.81,0-32.42-14.49-36.09-31.09-1.64-7.41-.95-14.88-.92-22.31.11-23.43-15.83-41.69-39.5-42.87-17.47-.87-33.99,9.5-39.69,29.93-2,7.18-.67,14.52-1.02,21.77-.51,10.76-2.58,21.01-9.56,29.67-7.46,9.26-17.23,14.73-29.03,14.79-55.16.26-110.32.07-165.49.18-5.9.01-11.46-.9-16.84-3.21Z"/>
  <path class="cls-3" d="M462.87,331.01c-2.26-11.1-3.92-22.31-7.76-33.08-12.06-33.87-33.52-59.78-64.67-77.77-18.24-10.54-37.88-16.31-58.75-18.3-1.63-.16-3.24-.64-4.86-.96.03-27.92.07-55.85.1-83.77,29.15-.01,58.31-.6,87.44.15,23.43.6,41.87-9.99,48.56-33.21.04,31.33.13,62.65.12,93.98-.03,50.99-.12,101.98-.19,152.97Z"/>
  <path class="cls-1" d="M463.96,344.13c-1.58-1.3-.83-3.08-.96-4.67,1.78,1.26.76,3.09.96,4.67Z"/>
</svg>