<?xml version="1.0" encoding="UTF-8"?>
<svg id="Layer_1" data-name="Layer 1" xmlns="http://www.w3.org/2000/svg" viewBox="0 0 898 738.19">
  <defs>
    <style>
      .cls-1 {
        fill: #f4fafb;
      }

      .cls-1, .cls-2, .cls-3, .cls-4, .cls-5, .cls-6, .cls-7 {
        stroke-width: 0px;
      }

      .cls-2 {
        fill: #38a8c4;
      }

      .cls-3 {
        fill: #39a8c5;
      }

      .cls-4 {
        fill: #37a7c4;
      }

      .cls-5 {
        fill: #045872;
      }

      .cls-6 {
        fill: #38a8c5;
      }

      .cls-7 {
        fill: #3aa9c5;
      }
    </style>
  </defs>
  <path class="cls-5" d="M462.54,384.18c.06,12.83.15,25.66.16,38.49.02,18.22,12.29,34.83,29.42,39.72,22.12,6.31,46.13-8.45,49.77-31.23.6-3.73,1-7.53,1.01-11.3.17-90.15.2-180.3.43-270.45.06-22.72,17.79-41.81,41.44-41.43,18.66.3,37.33.13,55.99.04,19.93-.09,38.69,19.09,38.7,38.36.07,90.65.07,181.29.16,271.94.01,10.56,1.59,20.59,8.22,29.57,13.15,17.84,39.14,21.3,56.4,7.27,10.56-8.58,15.41-19.58,15.39-33.33-.14-89.65-.09-179.3.06-268.96.04-21.84,10.47-38.92,33.33-44.19,1.74-.4,3.57-.62,5.36-.62,19.83-.04,39.67-.43,59.49.08,20.08.52,37.12,16.17,37.65,36.72.99,38.43,1.03,76.89,1.07,115.34.1,99.15.02,198.3-.1,297.45-.01,11.75-2.24,23.06-10.17,32.38-7.19,8.44-16.48,13.8-27.5,13.86-56.82.3-113.65.31-170.47.03-16.04-.08-32.41-13.77-35.51-31.4-1.34-7.59-1.05-15.5-1.13-23.27-.19-19.48-13.13-35.61-31.07-40.25-24.89-6.44-49.37,13.03-49.15,37.85.1,11.08.31,22.1-3.92,32.78-6.19,15.63-23.1,24.54-36.52,24.49-55.49-.2-110.98-.08-166.47-.09-16.84,0-35.12-14.94-36.75-31.65-1.4-14.34-.87-28.86-1.15-43.3-.09-4.66-.04-9.33-.05-13.99,17.09-2.12,33.73-5.42,49.75-12.5,38.54-17.03,64.44-45.44,78.23-84.85,3.78-10.79,5.35-22.35,7.94-33.55Z"/>
  <path class="cls-4" d="M462.54,384.18c-2.59,11.21-4.16,22.76-7.94,33.55-13.8,39.41-39.69,67.81-78.23,84.85-16.02,7.08-32.65,10.39-49.75,12.5-94.49-.02-188.98-.34-283.47.19-20.28.11-39.97-16.49-41.41-34.65-1.47-18.43-3.87-37.14,2.03-55.19,4.87-14.93,16.1-23.47,31.44-26.33,4.51-.84,9.18-1.05,13.78-1.06,77.32-.06,154.65-.02,231.97-.06,22.4-.01,40.58-19.1,40.98-40.63.37-20.12-13.99-38.05-31.78-41.95-4.97-1.09-10.12-1.9-15.19-1.92-42.99-.15-85.99.1-128.99-.15-30.75-.18-59-9.06-84.12-26.83-31.92-22.58-50.43-53.81-58.25-91.89C-.13,176.38-.14,157.94.9,139.65c1.7-29.76,11.07-57.31,29.05-81.39C50.88,30.26,78.74,12.28,112.64,4.38,124.57,1.6,137.1.26,149.35.22,240.68-.12,332,.03,423.32.04c19.82,0,38.38,16.8,39.42,36.66.74,14.07.62,28.23.07,42.31-.54,13.71-7.93,23.84-19.02,31.48-.86.59-1.45,1.57-2.16,2.36-11.28,3.69-22.85,4.53-34.67,4.33-19.93-.35-39.86-.12-59.8-.05-2.1,0-4.2.57-6.3.88-1.73-.29-3.46-.84-5.19-.85-51.3-.05-102.61-.07-153.91.03-3.4,0-6.88.72-10.18,1.64-19.07,5.29-32.94,27.42-28.71,47.69,3.48,16.67,17.24,31.31,33.96,33.05,10.2,1.06,20.53,1.09,30.81,1.14,39.64.16,79.28.15,118.93.2,1.95.34,3.89.82,5.85,1,15.62,1.41,30.65,5.31,44.91,11.66,20.61,9.18,38.31,22.38,52.58,40.03,13.1,16.19,23.01,33.98,27.83,54.36,1.81,7.65,3.26,15.38,4.87,23.08-.02,17.72-.04,35.44-.06,53.15Z"/>
  <path class="cls-5" d="M340.86,118c2.1-.31,4.2-.87,6.3-.88,19.93-.07,39.87-.29,59.8.05,11.83.21,23.4-.64,34.67-4.33,14.21,8.37,21.21,20.87,21.2,37.29-.06,60.3-.15,120.59-.23,180.89-1.61-7.7-3.06-15.43-4.87-23.08-4.82-20.38-14.74-38.17-27.83-54.36-14.28-17.66-31.97-30.85-52.58-40.03-14.26-6.35-29.29-10.25-44.91-11.66-1.96-.18-3.9-.66-5.85-1,.06-16.47.3-32.94.11-49.4-.15-13.34,4.23-24.54,14.19-33.49Z"/>
  <path class="cls-3" d="M436.53,682.53c0-14.83-.02-29.65,0-44.48.01-7.84,2.36-10.21,10.03-10.23,4.66-.01,9.33-.04,13.99,0,6.36.06,9.06,2.73,9.07,9.16.04,18.66.01,37.32.02,55.98,0,1.5-.09,3.02.13,4.49.63,4.28,3.83,6.98,7.9,6.69,4.37-.32,6.68-3.04,6.96-7.12.33-4.81.1-9.66.1-14.49,0-14.99-.02-29.99,0-44.98.01-7.03,2.65-9.68,9.57-9.72,5-.03,10-.07,14.99.01,5.82.09,8.51,2.76,8.53,8.62.05,18.66.02,37.32.02,55.97,0,1.33-.08,2.68.05,4,.5,4.99,3.62,7.95,8.04,7.73,4.24-.22,6.88-3.1,7.01-8.11.15-5.83.04-11.66.04-17.49,0-13.49-.02-26.99,0-40.48.02-7.73,2.52-10.22,10.11-10.25,4.66-.02,9.33-.04,13.99,0,6.29.06,9.13,2.74,9.31,9.1.16,5.99.04,11.99.04,17.99,0,23.16-.09,46.31.04,69.47.06,10.63-1.37,14.24-13.86,13.73-11.48-.47-22.99-.08-34.48-.11-6.32-.02-9.02-2.66-9.34-9.06-.09-1.83.04-3.67-.06-5.5-.23-4.43-3.01-7.32-7.08-7.47-4.33-.15-7.48,2.72-7.84,7.3-.16,1.99.01,4-.07,5.99-.24,6.09-2.92,8.71-9.04,8.72-12.83.04-25.66.02-38.48,0-7.16,0-9.69-2.43-9.71-9.5-.05-15.33-.01-30.65-.02-45.98Z"/>
  <path class="cls-6" d="M581.56,682.73c0-15-.03-29.99.01-44.99.02-7.41,2.53-9.92,9.86-9.92,27.49-.01,54.99-.01,82.48,0,7.42,0,9.83,2.43,9.88,9.86.02,2.33.01,4.67,0,7-.04,7.61-2.61,10.27-10.14,10.29-16.66.04-33.32.06-49.99-.02-4.13-.02-7.2,1.29-8.57,5.36-1.69,5.05,2.1,9.55,8.22,9.58,14.33.08,28.66.02,42.99.03,10.12,0,12.15,2.09,12.16,12.41,0,1.17.02,2.33,0,3.5-.14,7.2-2.91,10-10.04,10.02-13.66.03-27.33,0-40.99,0-1.33,0-2.67-.04-4,.01-5.38.22-8.73,3.15-8.73,7.59,0,4.43,3.46,7.46,8.79,7.47,16.16.04,32.32.01,48.49.02,9.69,0,11.81,2.09,11.81,11.61,0,15.23-.22,15.46-15.26,15.46-25.66,0-51.32,0-76.98,0-7.43,0-9.96-2.44-9.98-9.79-.04-15.16-.01-30.33-.01-45.49Z"/>
  <path class="cls-3" d="M698.91,682.83c0-14.66-.02-29.32,0-43.98.01-8.59,2.45-11.03,10.91-11.03,21.33,0,42.65-.01,63.98,0,16.23.01,26.91,10.33,27.51,26.58.12,3.33.16,6.67,0,9.99-.32,6.56-3.6,10.05-10.15,10.71-3.96.4-7.17,1.71-8.35,5.87-1.27,4.48,1.59,8.49,6.47,9.26,10.17,1.59,12.06,3.77,12.07,13.97,0,8,.06,15.99-.02,23.99-.07,7.36-2.64,9.81-10.01,9.83-4.5.01-9,.01-13.49,0-7.01-.02-9.71-2.46-9.9-9.5-.2-7.33-.04-14.66-.05-21.99-.02-8.48-2.06-10.47-10.66-10.47-5.5,0-11-.08-16.49.02-5.54.1-8.24,2.75-8.32,8.35-.12,8,.01,15.99-.05,23.99-.05,6.92-2.79,9.58-9.72,9.61-4.5.02-9,.01-13.49,0-7.49-.02-10.18-2.6-10.21-10.2-.08-14.99-.02-29.99-.02-44.98ZM750.58,654.86c-3.66,0-7.32-.13-10.97.03-4.26.2-6.81,2.57-7.13,6.84-.32,4.3,1.95,7.43,6.1,7.69,7.6.48,15.26.52,22.86.07,4.33-.26,6.78-3.29,6.36-7.95-.4-4.38-3.07-6.48-7.26-6.67-3.32-.16-6.65-.03-9.97-.02Z"/>
  <path class="cls-3" d="M41.91,738.02c-10.66,0-21.32.03-31.99,0-6.42-.02-9.09-2.66-9.23-9.04-.05-2.5-.03-5,0-7.5.05-7.38,2.84-10.27,10.29-10.31,16.49-.07,32.99,0,49.48-.03,5.91,0,9.14-2.67,9.13-7.42-.01-4.69-3.3-7.46-9.22-7.52-9.66-.1-19.33.09-28.98-.15-16.38-.41-27.92-10.17-30.19-26.3-1.68-11.96-.91-23.73,8.43-33.07,5.67-5.67,12.6-8.76,20.59-8.81,21.32-.14,42.65-.08,63.97-.03,5.9.01,8.43,2.63,8.57,8.54.07,2.83.04,5.66.01,8.5-.07,6.92-2.57,9.63-9.62,9.86-6.32.2-12.66.05-18.99.05-10.5,0-20.99-.03-31.49.01-5.44.02-8.78,2.86-8.82,7.34-.04,4.34,3.43,7.13,8.94,7.23,10.81.18,21.66-.09,32.44.66,15.81,1.09,27.27,13.67,27.45,29.54.06,5.13.16,10.42-.95,15.37-3.15,14.06-14.88,23.03-29.32,23.09-10.16.04-20.32,0-30.49,0Z"/>
  <path class="cls-6" d="M198.82,683.12c0,9.64.96,19.4-.22,28.89-1.92,15.53-14.89,25.93-30.58,25.99-7.66.03-15.4.57-22.97-.3-15.43-1.77-25.97-13.03-26.88-30.48-.91-17.42-.62-34.98.54-52.39,1.05-15.68,14.41-26.77,30.18-27,6.16-.09,12.33-.04,18.49-.01,18.33.08,31.84,13.41,32.13,31.8.13,7.83.02,15.66.02,23.49-.24,0-.48,0-.71,0ZM166.42,682.79c0-6.32.07-12.65-.02-18.97-.08-5.69-3.03-9.2-7.6-9.28-4.56-.08-7.77,3.38-7.83,9.06-.13,12.98-.14,25.96,0,38.93.06,5.57,2.97,8.57,7.59,8.62,4.86.05,7.71-3.04,7.82-8.9.13-6.49.03-12.98.03-19.47Z"/>
  <path class="cls-2" d="M214.62,683.1c0-14.99-.02-29.97,0-44.96.01-7.91,2.48-10.31,10.5-10.31,27.14,0,54.29,0,81.43,0,8,0,10.25,2.3,10.32,10.46.02,2.66.05,5.33,0,7.99-.14,6.94-2.85,9.65-9.76,9.67-16.65.03-33.31-.09-49.96.12-2.44.03-5.56.89-7.08,2.55-1.47,1.61-2.44,5.39-1.52,7.05,1.3,2.34,4.42,4.85,6.97,5.1,7.26.69,14.63.28,21.96.29,8.33.01,16.65-.04,24.98.02,5.93.05,8.8,2.93,8.96,8.92.09,3.33.08,6.66,0,9.99-.14,6.23-3,9.11-9.28,9.13-14.65.06-29.31,0-43.96.02-7.95,0-10.41,2.49-10.44,10.46-.02,6.49.04,12.99-.02,19.48-.06,6.16-2.72,8.85-8.78,8.92-5,.05-9.99.04-14.99,0-6.62-.04-9.31-2.69-9.33-9.45-.06-15.15-.02-30.31-.02-45.46Z"/>
  <path class="cls-6" d="M816.43,682.78c0-14.66,0-29.33,0-43.99,0-8.94,2-10.97,10.74-10.97,4.67,0,9.33-.07,14,.02,5.37.11,8.27,2.95,8.35,8.4.12,7.83-.02,15.66.05,23.49.05,5.72,3.09,9.22,7.71,9.06,4.43-.15,7.31-3.56,7.36-8.96.07-7.5,0-15,.02-22.49.03-6.78,2.65-9.47,9.24-9.52,5.17-.04,10.33-.08,15.5.01,5.53.1,8.18,2.82,8.25,8.37.06,4.66.33,9.36-.09,13.99-.32,3.55-1.13,7.2-2.52,10.46-2.55,5.96-5.53,11.75-8.64,17.45-1.89,3.46-1.91,6.53.09,9.86,1.28,2.13,2.01,4.61,3.39,6.67,7.09,10.6,8.89,22.29,7.85,34.75-.49,5.83-2.77,8.54-8.59,8.62-5,.07-10,.03-15,0-6.75-.03-9.43-2.64-9.47-9.28-.04-7.5.04-15-.03-22.49-.05-5.67-3.06-9.22-7.63-9.2-4.54.02-7.4,3.55-7.44,9.34-.05,7.5.03,15-.03,22.49-.05,6.37-2.79,9.05-9.14,9.13-1,.01-2,0-3,0-21.89.19-21.16,1.5-20.98-20.74.09-11.5.02-22.99.02-34.49Z"/>
  <path class="cls-7" d="M376.21,627.24c11.67,0,23.33-.03,35,.01,7.52.03,10.1,2.67,10.21,10.3.04,2.83.04,5.67,0,8.5-.11,7.39-2.48,9.74-10.01,9.87-3,.05-6-.01-9,.02-6.6.07-9.07,2.42-9.09,9.03-.06,20.5-.02,41-.02,61.49,0,10.1-1.45,11.55-11.51,11.55-4.33,0-8.67.02-13,0-6.6-.04-8.92-2.32-8.93-9.08-.04-20.83,0-41.66-.02-62.49,0-8.52-2.01-10.48-10.64-10.51-3.17,0-6.34.12-9.5-.09-5.21-.34-7.65-2.71-7.89-7.82-.21-4.32-.21-8.67,0-12.99.26-5.26,2.95-7.73,8.4-7.77,12-.08,24-.02,36-.02Z"/>
  <path class="cls-1" d="M166.42,682.79c0,6.49.1,12.98-.03,19.47-.12,5.86-2.96,8.95-7.82,8.9-4.63-.05-7.53-3.05-7.59-8.62-.15-12.98-.14-25.95,0-38.93.06-5.68,3.28-9.14,7.83-9.06,4.57.08,7.53,3.59,7.6,9.28.09,6.32.02,12.64.02,18.97Z"/>
</svg>